<?xml version="1.0" encoding="UTF-8" standalone="no"?>
<!-- Created with Inkscape (http://www.inkscape.org/) -->

<svg
   width="1080"
   height="1080"
   viewBox="0 0 1080 1080"
   version="1.1"
   id="svg1"
   xml:space="preserve"
   inkscape:version="1.3 (0e150ed6c4, 2023-07-21)"
   sodipodi:docname="logo.svg"
   xmlns:inkscape="http://www.inkscape.org/namespaces/inkscape"
   xmlns:sodipodi="http://sodipodi.sourceforge.net/DTD/sodipodi-0.dtd"
   xmlns="http://www.w3.org/2000/svg"
   xmlns:svg="http://www.w3.org/2000/svg"><sodipodi:namedview
     id="namedview1"
     pagecolor="#ffffff"
     bordercolor="#111111"
     borderopacity="1"
     inkscape:showpageshadow="0"
     inkscape:pageopacity="0"
     inkscape:pagecheckerboard="1"
     inkscape:deskcolor="#d1d1d1"
     inkscape:document-units="px"
     inkscape:zoom="0.5212963"
     inkscape:cx="190.87034"
     inkscape:cy="678.11723"
     inkscape:window-width="1920"
     inkscape:window-height="1044"
     inkscape:window-x="0"
     inkscape:window-y="0"
     inkscape:window-maximized="1"
     inkscape:current-layer="layer1" /><defs
     id="defs1"><inkscape:path-effect
       effect="copy_rotate"
       starting_point="639.87057,469.40773"
       origin="548.48581,469.40773"
       id="path-effect11"
       is_visible="true"
       lpeversion="1.2"
       lpesatellites=""
       method="normal"
       num_copies="2"
       starting_angle="0"
       rotation_angle="180"
       gap="-0.01"
       copies_to_360="true"
       mirror_copies="false"
       split_items="false"
       link_styles="false" /><inkscape:path-effect
       effect="mirror_symmetry"
       start_point="555.62089,280.6088"
       end_point="471.29522,362.59326"
       center_point="513.45806,321.60103"
       id="path-effect10"
       is_visible="true"
       lpeversion="1.2"
       lpesatellites=""
       mode="free"
       discard_orig_path="false"
       fuse_paths="false"
       oposite_fuse="false"
       split_items="false"
       split_open="false"
       link_styles="false" /><inkscape:path-effect
       effect="mirror_symmetry"
       start_point="631.95813,383.8572"
       end_point="462.68997,554.18024"
       center_point="547.32405,469.01872"
       id="path-effect7"
       is_visible="true"
       lpeversion="1.2"
       lpesatellites=""
       mode="free"
       discard_orig_path="false"
       fuse_paths="false"
       oposite_fuse="false"
       split_items="false"
       split_open="false"
       link_styles="false" /><inkscape:path-effect
       effect="mirror_symmetry"
       start_point="501.28909,422.4677"
       end_point="583.90029,504.62388"
       center_point="542.59469,463.54579"
       id="path-effect6"
       is_visible="true"
       lpeversion="1.2"
       lpesatellites=""
       mode="free"
       discard_orig_path="false"
       fuse_paths="false"
       oposite_fuse="false"
       split_items="false"
       split_open="false"
       link_styles="false" /></defs><g
     inkscape:label="Layer 1"
     inkscape:groupmode="layer"
     id="layer1"><ellipse
       style="fill:#7075ff;fill-opacity:1;stroke-width:2.28337"
       id="path1"
       cx="151.18268"
       cy="540"
       rx="69.7118"
       ry="68.321213" /><ellipse
       style="fill:#30deff;fill-opacity:1;stroke-width:2.28337"
       id="ellipse2"
       cx="945.90314"
       cy="540"
       rx="69.7118"
       ry="68.321213" /><path
       d="m 746.85939,213.95651 c -4.58269,0.0254 -9.10944,0.28121 -13.5701,0.75077 -4.46065,0.46956 -8.85232,1.15337 -13.1688,2.04524 -4.3165,0.89185 -8.55695,1.99138 -12.70714,3.28356 -4.1502,1.2922 -8.21031,2.77801 -12.17209,4.44859 -3.9618,1.67057 -7.8254,3.52617 -11.57666,5.55316 -3.75124,2.02698 -7.39357,4.22295 -10.91216,6.58442 -3.51859,2.36144 -6.91484,4.88559 -10.17865,7.55954 -3.2638,2.67395 -6.39351,5.50118 -9.38042,8.46567 -2.98688,2.9645 -5.82957,6.06536 -8.51742,9.29844 -2.68788,3.23307 -5.22307,6.59539 -7.58977,10.07507 -2.3667,3.47971 -4.5653,7.07837 -6.58872,10.78273 -2.02344,3.70438 -3.86928,7.51423 -5.52729,11.42131 -1.5615,3.67966 -2.92386,7.45998 -4.14223,11.30052 -0.0753,0.23737 -0.18049,0.46105 -0.25456,0.699 -0.43914,1.41293 -0.71785,2.89068 -1.1089,4.32345 -0.5629,3.40656 -1.41602,8.22395 -2.68814,14.31656 -0.22149,1.06076 -0.64294,2.63502 -0.88884,3.76681 -1.19329,5.49221 -2.49134,11.32568 -4.31914,18.27757 -1.10223,4.19223 -2.33173,8.61759 -3.69349,13.23785 -1.36176,4.62027 -2.85738,9.43621 -4.50035,14.40716 -1.64295,4.97098 -3.43473,10.09916 -5.38056,15.3435 -1.94585,5.24432 -4.04652,10.60643 -6.3169,16.0468 -2.27038,5.44034 -4.70996,10.95807 -7.32657,16.5171 -2.61658,5.55904 -5.41217,11.15836 -8.39663,16.75875 -2.98445,5.60038 -6.15742,11.20296 -9.53142,16.76737 -3.374,5.56441 -6.95005,11.09192 -10.73525,16.543 -3.78521,5.45107 -7.78143,10.8252 -11.99952,16.08563 -4.21806,5.26042 -8.65583,10.40716 -13.32846,15.39959 -4.85031,5.18228 -9.88707,10.13588 -15.06302,14.86883 -5.17594,4.73299 -10.49098,9.24816 -15.90872,13.54854 -5.41774,4.30036 -10.9371,8.38684 -16.5128,12.27132 -5.57569,3.8845 -11.21248,7.56491 -16.86229,11.05026 -5.64982,3.48532 -11.31282,6.77802 -16.95291,9.88091 -5.6401,3.10291 -11.25536,6.01758 -16.8019,8.75476 -5.54653,2.7372 -11.02715,5.29648 -16.39629,7.68469 -5.36916,2.38822 -10.62821,4.60611 -15.73613,6.66207 -5.10793,2.05598 -10.06717,3.95082 -14.83002,5.69126 -4.76285,1.74042 -9.33107,3.32624 -13.66503,4.76786 -8.66789,2.88325 -16.39333,5.18869 -22.84262,6.97705 -3.95692,1.09724 -6.39763,1.66038 -9.3157,2.3861 -4.13166,0.45125 -8.21697,1.06321 -12.22386,1.89853 -4.24173,0.88425 -8.4064,1.98193 -12.48709,3.27494 -4.08068,1.29301 -8.07581,2.78198 -11.97361,4.46152 -3.89778,1.67953 -7.70235,3.54819 -11.39542,5.592 -3.69307,2.0438 -7.27739,4.26328 -10.74389,6.64911 -3.46652,2.38586 -6.81383,4.93592 -10.03195,7.64155 -3.21812,2.70564 -6.30738,5.56607 -9.25528,8.56924 -2.94789,3.00314 -5.75375,6.1537 -8.40957,9.43218 -2.65584,3.27845 -5.16154,6.68597 -7.50348,10.21748 -2.34191,3.5315 -4.52211,7.18436 -6.52829,10.94667 -2.00621,3.76233 -3.83983,7.63598 -5.48846,11.60686 -1.64863,3.97088 -3.11031,8.0408 -4.37953,12.198 -1.26922,4.15718 -2.34656,8.40312 -3.21455,12.72438 -0.86798,4.32127 -1.52696,8.71868 -1.97187,13.18176 -0.44491,4.46309 -0.67309,8.99174 -0.67309,13.57441 0,4.58267 0.22818,9.11132 0.67309,13.57441 0.44491,4.46308 1.10389,8.86049 1.97187,13.18177 0.86799,4.32125 1.94533,8.56719 3.21455,12.72437 1.26922,4.1572 2.7309,8.22712 4.37953,12.198 1.64863,3.97088 3.48225,7.84453 5.48846,11.60684 2.00618,3.76233 4.18638,7.4152 6.52829,10.94669 2.34194,3.53151 4.84764,6.93903 7.50348,10.21748 2.65582,3.27846 5.46168,6.42471 8.40957,9.42788 2.9479,3.00316 6.03716,5.8636 9.25528,8.56923 3.21812,2.70561 6.56543,5.26 10.03195,7.64584 3.4665,2.38585 7.05082,4.60533 10.74389,6.64914 3.69307,2.0438 7.49764,3.91246 11.39542,5.592 3.8978,1.67953 7.89293,3.1685 11.97361,4.46151 4.08069,1.29302 8.24536,2.38636 12.48709,3.27064 4.24172,0.88424 8.55918,1.56176 12.94012,2.01502 4.38095,0.45325 8.82583,0.68606 13.32415,0.68606 4.49833,0 8.94321,-0.23281 13.32415,-0.68606 4.38095,-0.45326 8.69841,-1.13078 12.94013,-2.01502 4.24175,-0.88428 8.41072,-1.97762 12.4914,-3.27064 4.08067,-1.29301 8.07581,-2.78198 11.97361,-4.46151 3.8978,-1.67954 7.69804,-3.5482 11.39111,-5.592 3.69307,-2.04381 7.27739,-4.26329 10.74389,-6.64914 3.46652,-2.38584 6.81383,-4.94023 10.03195,-7.64584 3.21812,-2.70563 6.30738,-5.56607 9.25527,-8.56923 2.9479,-3.00317 5.75807,-6.14942 8.41389,-9.42788 2.65583,-3.27845 5.15723,-6.68597 7.49916,-10.21748 2.34192,-3.53149 4.52212,-7.18436 6.5283,-10.94669 2.00621,-3.76231 3.83983,-7.63596 5.48846,-11.60684 1.64863,-3.97088 3.11462,-8.0408 4.38384,-12.198 1.26924,-4.15718 2.34224,-8.40312 3.21023,-12.72437 0.22245,-1.10747 0.30964,-2.26119 0.50482,-3.37851 l 0.37972,0.38402 c 0,0 0.36847,-1.94921 1.17363,-5.51435 0.80516,-3.56511 2.04873,-8.74499 3.79704,-15.2054 1.7483,-6.46041 4.00096,-14.19996 6.83036,-22.88577 1.41469,-4.34293 2.97504,-8.92155 4.68588,-13.69523 1.71084,-4.77367 3.5721,-9.74385 5.59631,-14.86455 2.02423,-5.12069 4.21229,-10.39527 6.56715,-15.77928 2.35486,-5.38398 4.87839,-10.87589 7.58113,-16.43943 2.70274,-5.56355 5.58334,-11.19863 8.65122,-16.85799 3.06785,-5.65938 6.32282,-11.34618 9.77304,-17.01764 3.45024,-5.67147 7.09685,-11.32718 10.94669,-16.92702 3.84986,-5.59982 7.90108,-11.14168 12.16777,-16.58615 4.26671,-5.44445 8.74849,-10.78966 13.4493,-15.99501 4.70082,-5.20537 9.62175,-10.27112 14.77393,-15.15364 4.9634,-4.70362 10.08336,-9.17694 15.31758,-13.4277 5.23423,-4.25076 10.58472,-8.27967 16.01229,-12.09873 5.42755,-3.81909 10.93052,-7.42594 16.47396,-10.83451 5.54345,-3.40857 11.12511,-6.62005 16.70697,-9.6393 5.58184,-3.01924 11.16416,-5.84906 16.70696,-8.50019 5.54278,-2.65111 11.04772,-5.12162 16.47397,-7.4258 5.42624,-2.30418 10.77572,-4.44201 16.00795,-6.42045 5.23226,-1.97841 10.3482,-3.79732 15.30897,-5.47118 4.96077,-1.67385 9.76516,-3.20049 14.37696,-4.59095 4.61183,-1.39048 9.03089,-2.6472 13.21628,-3.77548 8.3708,-2.25652 15.80957,-4.00686 22.00987,-5.34174 6.20032,-1.33486 11.16111,-2.25213 14.57115,-2.83483 3.41003,-0.58269 5.2727,-0.83275 5.2727,-0.83275 l -1.10028,-1.05283 c 0.76566,-0.22344 1.56589,-0.36319 2.32567,-0.59975 4.15022,-1.2922 8.21464,-2.78231 12.17642,-4.4529 3.9618,-1.67056 7.82109,-3.52186 11.57233,-5.54883 3.75126,-2.027 7.39359,-4.22728 10.91218,-6.58874 3.51859,-2.36145 6.91484,-4.8856 10.17865,-7.55955 3.2638,-2.67395 6.39351,-5.49687 9.3804,-8.46136 2.9869,-2.96448 5.8296,-6.06967 8.51745,-9.30274 2.68787,-3.23308 5.22306,-6.5954 7.58976,-10.07508 2.3667,-3.47971 4.56531,-7.07837 6.58872,-10.78273 2.02342,-3.70438 3.86926,-7.51423 5.52727,-11.42133 1.65802,-3.90708 3.13064,-7.91165 4.40112,-11.9995 1.27048,-4.08784 2.34077,-8.25769 3.2016,-12.50432 0.86083,-4.24665 1.5126,-8.56961 1.94167,-12.95308 0.42905,-4.38348 0.63322,-8.83011 0.60839,-13.32848 -0.025,-4.49834 -0.28196,-8.94137 -0.75941,-13.31982 -0.47745,-4.37847 -1.17206,-8.69031 -2.07975,-12.9272 -0.90769,-4.23686 -2.02841,-8.40056 -3.34398,-12.47412 -1.31557,-4.07356 -2.82948,-8.0592 -4.53055,-11.94772 -1.70107,-3.88854 -3.5882,-7.6791 -5.65242,-11.36091 -2.06422,-3.68181 -4.30453,-7.25172 -6.70954,-10.70505 -2.40499,-3.45336 -4.9742,-6.78993 -7.69762,-9.99312 -2.72342,-3.20319 -5.60154,-6.27649 -8.62099,-9.20782 -3.01947,-2.93132 -6.18221,-5.72006 -9.47535,-8.35779 -3.29315,-2.63774 -6.71617,-5.12493 -10.26063,-7.44738 -3.54446,-2.32243 -7.2078,-4.47818 -10.9812,-6.46359 -3.77342,-1.98542 -7.65706,-3.79702 -11.63706,-5.42373 -3.98,-1.62669 -8.05533,-3.06854 -12.21956,-4.31481 -4.16422,-1.24626 -8.41556,-2.29706 -12.74165,-3.14119 -4.32607,-0.84411 -8.72913,-1.48256 -13.19469,-1.90284 -4.46558,-0.42025 -8.99605,-0.62507 -13.57874,-0.59975 z"
       style="fill:#00fab3;fill-opacity:1;stroke-width:2.46503"
       id="path8" /><path
       style="fill:#58e3ff;fill-opacity:1;stroke-width:2.37903"
       d="m 555.74963,1013.0323 c 5.2427,0 10.46924,-0.5864 15.58078,-1.7518 5.11166,-1.1678 10.07623,-2.9061 14.79982,-5.1821 4.72377,-2.2743 9.1774,-5.0721 13.2767,-8.34051 4.09985,-3.2694 7.81966,-6.9892 11.08907,-11.08908 3.26812,-4.09793 6.06594,-8.5501 8.34054,-13.27236 2.27601,-4.7236 4.01433,-9.68817 5.18209,-14.79982 0.13741,-1.01707 0.25255,-2.03709 0.34518,-3.0592 0.18977,-0.50638 0.31552,-0.75337 0.50915,-1.27719 0.45403,-1.22824 0.83278,-2.44743 1.15205,-3.65897 0.31929,-1.21153 0.57967,-2.4155 0.79394,-3.61581 0.42853,-2.40061 0.67614,-4.787 0.86295,-7.17555 0.18689,-2.38853 0.31328,-4.78116 0.4962,-7.20141 0.18292,-2.42028 0.42454,-4.86964 0.84139,-7.3654 0.20833,-1.24789 0.46086,-2.5048 0.77236,-3.77977 0.31149,-1.27496 0.68186,-2.56718 1.12617,-3.87471 0.44429,-1.30753 0.95945,-2.63271 1.56627,-3.97826 0.60682,-1.34554 1.30225,-2.71 2.10131,-4.09907 0.79909,-1.38905 1.70161,-2.80344 2.72267,-4.24146 1.02104,-1.43805 2.16182,-2.9 3.43457,-4.39248 1.27276,-1.49251 2.67866,-3.01267 4.23285,-4.56508 1.55418,-1.55242 3.25634,-3.13711 5.12169,-4.75492 1.86534,-1.61781 3.84787,-3.07596 5.91993,-4.38817 2.07204,-1.31222 4.23658,-2.47838 6.4722,-3.51226 2.23563,-1.03389 4.53897,-1.93553 6.89509,-2.71833 2.3561,-0.78283 4.76363,-1.44739 7.19711,-2.00641 2.43348,-0.55899 4.8933,-1.01395 7.36107,-1.37641 2.46777,-0.36248 4.94529,-0.63094 7.40422,-0.82413 2.45896,-0.19309 4.90229,-0.31126 7.30931,-0.36244 2.407,-0.0513 4.77725,-0.0376 7.08923,0.0258 4.62396,0.12703 9.01534,0.4577 13.00055,0.88021 3.98519,0.42253 7.56533,0.93705 10.56698,1.43683 3.00164,0.49981 5.42463,0.98296 7.09787,1.34193 1.67323,0.35895 2.59751,0.59544 2.59751,0.59544 l 0.13388,-0.54368 c 2.59142,0.31152 5.1917,0.5475 7.79688,0.70765 2.70362,0.1637 5.41188,0.24577 8.12048,0.24592 7.82529,4e-4 15.63663,-0.68257 23.34313,-2.04089 7.70708,-1.35946 15.28163,-3.38953 22.63554,-6.06664 7.35506,-2.67608 14.46325,-5.98977 21.24183,-9.9025 6.77762,-3.91278 13.20138,-8.41041 19.1966,-13.44064 5.99461,-5.0314 11.53909,-10.57729 16.56889,-16.57322 5.03023,-5.99522 9.52789,-12.419 13.44067,-19.19661 3.91397,-6.77705 7.22909,-13.88378 9.9068,-21.23752 2.67563,-7.35404 4.70429,-14.92859 6.06232,-22.63551 1.36004,-7.70782 2.04442,-15.52061 2.04524,-23.34747 -10e-4,-7.82544 -0.68545,-15.63677 -2.04524,-23.34316 -1.35803,-7.70694 -3.38669,-15.28146 -6.06232,-22.63551 -2.67747,-7.35524 -5.99259,-14.4634 -9.9068,-21.24185 -3.91278,-6.7776 -8.41044,-13.20138 -13.44067,-19.1966 -5.03,-5.99443 -10.57446,-11.53889 -16.56889,-16.56889 -5.99522,-5.03023 -12.41898,-9.52789 -19.1966,-13.44067 -6.77843,-3.91421 -13.88661,-7.22934 -21.24183,-9.9068 -7.35391,-2.67709 -14.92846,-4.70718 -22.63554,-6.06662 -7.7065,-1.35834 -15.51784,-2.04129 -23.34313,-2.04092 -7.82675,-6.4e-4 -15.63953,0.68231 -23.34747,2.04092 -7.70707,1.35944 -15.28162,3.38953 -22.63553,6.06662 -7.35374,2.67771 -14.46047,5.99283 -21.23752,9.9068 -6.77761,3.91278 -13.20139,8.41044 -19.19661,13.44067 -5.99591,5.02982 -11.54182,10.57428 -16.5732,16.56889 -5.03023,5.99522 -9.52788,12.419 -13.44066,19.1966 -3.91273,6.77858 -7.2264,13.88677 -9.9025,21.24185 -2.67709,7.35392 -4.70718,14.92844 -6.06662,22.63551 -1.3598,7.70639 -2.04418,15.51772 -2.04524,23.34316 2.6e-4,2.70714 0.0822,5.41397 0.24595,8.11615 0.16436,2.70347 0.41046,5.40168 0.73784,8.09028 0.32606,2.68821 0.7333,5.36627 1.22109,8.02989 0.41983,2.22942 0.89608,4.44812 1.42821,6.65344 0.0979,1.02568 0.22611,1.80181 0.31066,2.89092 0.31017,3.99551 0.51655,8.39212 0.51346,13.0178 -0.002,2.31284 -0.0537,4.68465 -0.17254,7.08924 -0.11886,2.40461 -0.3029,4.84383 -0.56524,7.29636 -0.26234,2.45251 -0.60377,4.91745 -1.03556,7.37402 -0.43178,2.45657 -0.95625,4.90545 -1.58354,7.32223 -0.62728,2.41679 -1.36038,4.80359 -2.20919,7.13671 -0.84881,2.33312 -1.8118,4.61179 -2.90817,6.81741 -1.0964,2.20563 -2.32349,4.33871 -3.69349,6.37297 -1.37001,2.03429 -2.88246,3.97143 -4.55214,5.7905 -1.66966,1.81904 -3.30178,3.47375 -4.8973,4.98361 -1.59554,1.50987 -3.15819,2.87316 -4.6859,4.10339 -1.52772,1.23023 -3.0212,2.3293 -4.48741,3.30947 -1.46619,0.98015 -2.90382,1.84217 -4.31481,2.60182 -1.411,0.75965 -2.7974,1.41611 -4.15947,1.98482 -1.3621,0.56869 -2.70193,1.05109 -4.02143,1.4584 -1.3195,0.40733 -2.61737,0.74281 -3.90058,1.0183 -1.28323,0.27548 -2.55243,0.49128 -3.80568,0.66448 -2.50649,0.34644 -4.9582,0.51525 -7.38265,0.62997 -2.42443,0.11466 -4.82153,0.17386 -7.21436,0.2934 -2.39284,0.11952 -4.78108,0.29939 -7.1928,0.66017 -1.20586,0.18049 -2.41736,0.40963 -3.63738,0.69468 -1.22004,0.28505 -2.44866,0.62924 -3.68918,1.0485 -6.29636,2.12804 -11.3417,4.01025 -15.36504,5.63515 -4.02337,1.62492 -7.02605,2.99223 -9.24235,4.09477 -2.2163,1.10251 -3.64675,1.93739 -4.52192,2.49828 -0.87519,0.56089 -1.19521,0.8457 -1.19521,0.8457 l 0.90179,0.96221 c -1.1699,0.68842 -2.3196,1.41076 -3.44752,2.16604 -4.09813,3.26829 -7.81648,6.98663 -11.08477,11.08474 -3.2684,4.0993 -6.06622,8.55293 -8.34054,13.2767 -2.27601,4.72359 -4.01433,9.68816 -5.18208,14.79982 -1.16685,5.11137 -1.75593,10.33792 -1.75615,15.58078 7.3e-4,1.93121 0.0813,3.86164 0.24164,5.78617 0.1595,1.92336 0.39847,3.83941 0.71626,5.74302 0.31737,1.90253 0.71326,3.79121 1.18658,5.66104 0.47411,1.87158 1.02546,3.72285 1.65256,5.54885 0.6259,1.82455 1.32697,3.62256 2.10133,5.38922 0.77512,1.76735 1.623,3.50203 2.54143,5.19934 0.91915,1.69701 1.90811,3.35538 2.96426,4.97067 1.05497,1.61622 2.1764,3.18821 3.36125,4.71177 1.18561,1.52224 2.43371,2.99491 3.74095,4.41407 1.30642,1.42068 2.67112,2.78682 4.09044,4.09477 1.42055,1.30733 2.89467,2.5554 4.41837,3.74094 1.52356,1.18485 3.09555,2.30622 4.71177,3.36122 1.61531,1.0562 3.27366,2.0451 4.97067,2.9643 1.69732,0.9184 3.43199,1.7663 5.19936,2.5414 1.76666,0.7744 3.56465,1.4754 5.3892,2.1013 1.826,0.6271 3.67728,1.1785 5.54885,1.6526 1.86984,0.4733 3.75851,0.8692 5.66104,1.1866 1.90361,0.3178 3.81966,0.5567 5.74302,0.7162 1.92316,0.1589 3.85216,0.238 5.78186,0.2374 z"
       id="path12" /><path
       style="fill:#58e3ff;fill-opacity:1;stroke-width:2.37903"
       d="m 547.78675,74.21689 c -5.24271,-0.0012 -10.46924,0.586451 -15.58079,1.751818 -5.11166,1.167776 -10.07623,2.906095 -14.79982,5.182109 -4.72377,2.274312 -9.1774,5.072134 -13.2767,8.340536 -4.09985,3.269395 -7.81965,6.9892 -11.08907,11.089077 -3.26811,4.09792 -6.06594,8.5501 -8.34053,13.27236 -2.27602,4.72359 -4.01434,9.68816 -5.18209,14.79982 -0.13741,1.01707 -0.25256,2.03709 -0.34519,3.05919 -0.18977,0.50639 -0.31551,0.75338 -0.50915,1.2772 -0.45403,1.22824 -0.83277,2.44742 -1.15204,3.65896 -0.3193,1.21154 -0.57967,2.4155 -0.79394,3.61582 -0.42854,2.40061 -0.67614,4.787 -0.86295,7.17555 -0.1869,2.38852 -0.31329,4.78116 -0.49621,7.20141 -0.18292,2.42027 -0.42454,4.86964 -0.84139,7.3654 -0.20832,1.24788 -0.46086,2.5048 -0.77235,3.77976 -0.3115,1.27497 -0.68187,2.56719 -1.12618,3.87472 -0.44429,1.30753 -0.95945,2.63271 -1.56627,3.97825 -0.60682,1.34555 -1.30224,2.71001 -2.10131,4.09908 -0.79908,1.38905 -1.7016,2.80344 -2.72266,4.24146 -1.02104,1.43805 -2.16182,2.9 -3.43458,4.39248 -1.27276,1.49251 -2.67866,3.01267 -4.23284,4.56508 -1.55419,1.55242 -3.25634,3.13711 -5.12169,4.75492 -1.86535,1.61781 -3.84787,3.07596 -5.91993,4.38817 -2.07204,1.31222 -4.23658,2.47838 -6.47221,3.51226 -2.23563,1.03389 -4.53897,1.93553 -6.89509,2.71833 -2.35609,0.78283 -4.76362,1.44739 -7.1971,2.00641 -2.43349,0.55899 -4.89331,1.01395 -7.36108,1.37641 -2.46777,0.36248 -4.94528,0.63094 -7.40421,0.82413 -2.45896,0.19309 -4.9023,0.31126 -7.30932,0.36244 -2.40699,0.0513 -4.77725,0.0376 -7.08923,-0.0258 -4.62396,-0.12703 -9.01533,-0.4577 -13.00055,-0.88021 -3.98519,-0.42253 -7.56533,-0.93705 -10.56697,-1.43683 -3.00164,-0.49981 -5.42463,-0.98296 -7.09787,-1.34193 -1.67324,-0.35895 -2.59752,-0.59544 -2.59752,-0.59544 l -0.13387,0.54368 c -2.59142,-0.31152 -5.1917,-0.5475 -7.79688,-0.70765 -2.70363,-0.1637 -5.41189,-0.24577 -8.12048,-0.24592 -7.82529,-4e-4 -15.63664,0.68257 -23.34314,2.04089 -7.70707,1.35946 -15.28162,3.38953 -22.63554,6.06664 -7.35506,2.67608 -14.46325,5.98977 -21.24182,9.9025 -6.77763,3.91278 -13.20139,8.41041 -19.19661,13.44064 -5.9946,5.0314 -11.53908,10.57729 -16.56889,16.57322 -5.03023,5.99522 -9.52788,12.419 -13.44066,19.19661 -3.91397,6.77705 -7.2291,13.88378 -9.90681,21.23752 -2.67563,7.35404 -4.70428,14.92859 -6.06231,22.63551 -1.36004,7.70782 -2.04443,15.52061 -2.04524,23.34747 10e-4,7.82544 0.68544,15.63677 2.04524,23.34316 1.35803,7.70694 3.38668,15.28146 6.06231,22.63551 2.67747,7.35524 5.9926,14.4634 9.90681,21.24185 3.91278,6.7776 8.41043,13.20138 13.44066,19.1966 5.03001,5.99443 10.57447,11.53889 16.56889,16.56889 5.99522,5.03023 12.41898,9.52789 19.19661,13.44067 6.77842,3.91421 13.88661,7.22934 21.24182,9.9068 7.35392,2.67709 14.92847,4.70718 22.63554,6.06662 7.7065,1.35834 15.51785,2.04129 23.34314,2.04092 7.82674,6.4e-4 15.63953,-0.68231 23.34746,-2.04092 7.70708,-1.35944 15.28163,-3.38953 22.63554,-6.06662 7.35374,-2.67771 14.46047,-5.99283 21.23752,-9.9068 6.7776,-3.91278 13.20138,-8.41044 19.19661,-13.44067 5.9959,-5.02982 11.54182,-10.57428 16.57319,-16.56889 5.03023,-5.99522 9.52789,-12.419 13.44067,-19.1966 3.91273,-6.77858 7.2264,-13.88677 9.90249,-21.24185 2.67709,-7.35392 4.70718,-14.92844 6.06663,-22.63551 1.35979,-7.70639 2.04418,-15.51772 2.04524,-23.34316 -2.7e-4,-2.70714 -0.0822,-5.41397 -0.24595,-8.11615 -0.16436,-2.70347 -0.41047,-5.40168 -0.73785,-8.09028 -0.32605,-2.68821 -0.73329,-5.36627 -1.22108,-8.02989 -0.41983,-2.22942 -0.89609,-4.44812 -1.42822,-6.65344 -0.0979,-1.02568 -0.22611,-1.80181 -0.31065,-2.89092 -0.31017,-3.99551 -0.51655,-8.39212 -0.51346,-13.0178 0.002,-2.31284 0.0537,-4.68465 0.17254,-7.08924 0.11885,-2.40461 0.3029,-4.84383 0.56524,-7.29636 0.26234,-2.45251 0.60377,-4.91745 1.03555,-7.37402 0.43179,-2.45657 0.95625,-4.90545 1.58355,-7.32223 0.62727,-2.41679 1.36037,-4.80359 2.20918,-7.13671 0.84882,-2.33312 1.8118,-4.61179 2.90818,-6.81741 1.09639,-2.20563 2.32348,-4.33871 3.69349,-6.37297 1.37,-2.03429 2.88246,-3.97143 4.55214,-5.7905 1.66965,-1.81904 3.30178,-3.47375 4.8973,-4.98361 1.59554,-1.50987 3.15818,-2.87316 4.6859,-4.10339 1.52772,-1.23023 3.02119,-2.3293 4.48741,-3.30947 1.46619,-0.98015 2.90382,-1.84217 4.3148,-2.60182 1.41101,-0.75965 2.7974,-1.41611 4.15948,-1.98482 1.36209,-0.56869 2.70192,-1.05109 4.02142,-1.4584 1.3195,-0.40733 2.61738,-0.74281 3.90058,-1.0183 1.28323,-0.27548 2.55243,-0.49128 3.80568,-0.66448 2.5065,-0.34644 4.95821,-0.51525 7.38266,-0.62997 2.42442,-0.11466 4.82152,-0.17386 7.21436,-0.2934 2.39283,-0.11952 4.78107,-0.29939 7.19279,-0.66017 1.20587,-0.18049 2.41736,-0.40963 3.63738,-0.69468 1.22005,-0.28505 2.44867,-0.62924 3.68919,-1.0485 6.29635,-2.12804 11.34169,-4.01025 15.36504,-5.63515 4.02337,-1.62492 7.02605,-2.99223 9.24235,-4.09477 2.2163,-1.10251 3.64674,-1.93739 4.52191,-2.49828 0.87519,-0.56089 1.19522,-0.8457 1.19522,-0.8457 l -0.90179,-0.96221 c 1.16989,-0.68842 2.3196,-1.41076 3.44752,-2.16604 4.09813,-3.26829 7.81647,-6.98663 11.08476,-11.08474 3.26841,-4.0993 6.06623,-8.55293 8.34054,-13.2767 2.27601,-4.72359 4.01433,-9.68816 5.18209,-14.79982 1.16684,-5.11137 1.75592,-10.33792 1.75614,-15.58079 -7.2e-4,-1.9312 -0.0813,-3.86163 -0.24164,-5.78616 -0.1595,-1.92336 -0.39847,-3.83941 -0.71626,-5.74302 -0.31737,-1.90253 -0.71326,-3.79121 -1.18657,-5.66104 -0.47412,-1.87158 -1.02546,-3.72285 -1.65256,-5.54885 -0.62591,-1.82455 -1.32697,-3.62256 -2.10134,-5.38922 -0.77511,-1.76735 -1.623,-3.50203 -2.54142,-5.19934 -0.91915,-1.69701 -1.90812,-3.35538 -2.96426,-4.97067 -1.05498,-1.61622 -2.1764,-3.18821 -3.36126,-4.71177 -1.1856,-1.522244 -2.4337,-2.99491 -3.74094,-4.414068 -1.30643,-1.420683 -2.67113,-2.786821 -4.09044,-4.09477 -1.42055,-1.307329 -2.89468,-2.555409 -4.41837,-3.740946 -1.52357,-1.184852 -3.09556,-2.306257 -4.71178,-3.361232 -1.61531,-1.056145 -3.27366,-2.04513 -4.97066,-2.964284 -1.69732,-0.918403 -3.432,-1.76631 -5.19937,-2.541425 -1.76666,-0.774382 -3.56465,-1.475445 -5.38919,-2.101351 -1.82601,-0.627099 -3.67728,-1.178468 -5.54886,-1.652581 -1.86983,-0.473318 -3.75851,-0.869182 -5.66104,-1.186576 -1.90361,-0.317791 -3.81966,-0.556759 -5.74302,-0.71624 -1.92316,-0.15884 -3.85215,-0.237929 -5.78186,-0.237333 z"
       id="path11" /></g></svg>
